<svg width="24" height="24" viewBox="0 0 24 24" fill="none" xmlns="http://www.w3.org/2000/svg">
<path fill-rule="evenodd" clip-rule="evenodd" d="M7.09998 5.0001C7.09998 3.95076 7.95063 3.1001 8.99998 3.1001C10.0493 3.1001 10.9 3.95076 10.9 5.0001C10.9 6.04944 10.0493 6.9001 8.99998 6.9001C7.95063 6.9001 7.09998 6.04944 7.09998 5.0001ZM13.1 5.0001C13.1 3.95076 13.9506 3.1001 15 3.1001C16.0493 3.1001 16.9 3.95076 16.9 5.0001C16.9 6.04944 16.0493 6.9001 15 6.9001C13.9506 6.9001 13.1 6.04944 13.1 5.0001ZM7.09998 12.0001C7.09998 10.9508 7.95063 10.1001 8.99998 10.1001C10.0493 10.1001 10.9 10.9508 10.9 12.0001C10.9 13.0494 10.0493 13.9001 8.99998 13.9001C7.95063 13.9001 7.09998 13.0494 7.09998 12.0001ZM13.1 12.0001C13.1 10.9508 13.9506 10.1001 15 10.1001C16.0493 10.1001 16.9 10.9508 16.9 12.0001C16.9 13.0494 16.0493 13.9001 15 13.9001C13.9506 13.9001 13.1 13.0494 13.1 12.0001ZM7.09998 19.0001C7.09998 17.9508 7.95063 17.1001 8.99998 17.1001C10.0493 17.1001 10.9 17.9508 10.9 19.0001C10.9 20.0494 10.0493 20.9001 8.99998 20.9001C7.95063 20.9001 7.09998 20.0494 7.09998 19.0001ZM13.1 19.0001C13.1 17.9508 13.9506 17.1001 15 17.1001C16.0493 17.1001 16.9 17.9508 16.9 19.0001C16.9 20.0494 16.0493 20.9001 15 20.9001C13.9506 20.9001 13.1 20.0494 13.1 19.0001Z" fill="black"/>
</svg>
