<svg width="24" height="24" viewBox="0 0 24 24" fill="none" xmlns="http://www.w3.org/2000/svg">
<path d="M12.4004 9.09961C12.8973 9.09982 13.2998 9.50307 13.2998 10C13.2998 10.4969 12.8973 10.9002 12.4004 10.9004H5C4.50294 10.9004 4.09961 10.4971 4.09961 10C4.09961 9.50294 4.50294 9.09961 5 9.09961H12.4004Z" fill="black"/>
<path d="M9.40039 5.09961C9.89727 5.09982 10.2998 5.50307 10.2998 6C10.2998 6.49693 9.89727 6.90018 9.40039 6.90039H5C4.50294 6.90039 4.09961 6.49706 4.09961 6C4.09961 5.50294 4.50294 5.09961 5 5.09961H9.40039ZM19.4004 5.09961C19.8973 5.09982 20.2998 5.50307 20.2998 6C20.2998 6.49693 19.8973 6.90018 19.4004 6.90039H13.4004C12.9033 6.90039 12.5 6.49706 12.5 6C12.5 5.50294 12.9033 5.09961 13.4004 5.09961H19.4004Z" fill="black"/>
<path d="M12 17.0996C12.4971 17.0996 12.9004 17.5029 12.9004 18C12.9004 18.4971 12.4971 18.9004 12 18.9004H4.80078C4.30373 18.9004 3.90039 18.4971 3.90039 18C3.90039 17.5029 4.30373 17.0996 4.80078 17.0996H12ZM10.001 13.0996C10.4979 13.0997 10.9004 13.503 10.9004 14C10.9004 14.497 10.4979 14.9003 10.001 14.9004H4.80078C4.30372 14.9004 3.90039 14.4971 3.90039 14C3.90039 13.5029 4.30372 13.0996 4.80078 13.0996H10.001Z" fill="black"/>
<path d="M20.0996 14C20.0996 13.9448 20.0553 13.9004 20 13.9004H16C15.9448 13.9004 15.9004 13.9448 15.9004 14V15C15.9004 15.6075 16.3925 16.0996 17 16.0996H19C19.6075 16.0996 20.0996 15.6075 20.0996 15V14ZM21.9004 15C21.9004 16.6016 20.6017 17.9004 19 17.9004H18.9004V20C18.9004 20.4971 18.4971 20.9004 18 20.9004C17.503 20.9004 17.0996 20.4971 17.0996 20V17.9004H17C15.3984 17.9004 14.0996 16.6016 14.0996 15V14C14.0996 13.2764 14.5044 12.647 15.0996 12.3262V10C15.0996 9.50294 15.503 9.09961 16 9.09961C16.4971 9.09961 16.9004 9.50294 16.9004 10V12.0996H19.0996V10C19.0996 9.50294 19.503 9.09961 20 9.09961C20.4971 9.09961 20.9004 9.50294 20.9004 10V12.3262C21.4956 12.647 21.9004 13.2764 21.9004 14V15Z" fill="black"/>
</svg>
