<svg width="24" height="24" viewBox="0 0 24 24" fill="none" xmlns="http://www.w3.org/2000/svg">
<path fill-rule="evenodd" clip-rule="evenodd" d="M16.8389 2.99951C17.3659 2.9995 17.8208 2.99919 18.1953 3.02979C18.5906 3.0621 18.984 3.13294 19.3623 3.32569C19.9267 3.61329 20.3852 4.07278 20.6729 4.63721C20.8656 5.01559 20.9374 5.40886 20.9697 5.8042C21.0003 6.17876 21 6.63354 21 7.16065V16.8374C21 17.3644 21.0003 17.8194 20.9697 18.1938C20.9374 18.5891 20.8656 18.9825 20.6729 19.3608C20.3853 19.9253 19.9267 20.3847 19.3623 20.6724C18.984 20.8651 18.5906 20.936 18.1953 20.9683C17.8208 20.9989 17.3659 20.9995 16.8389 20.9995H7.16113C6.63412 20.9995 6.17918 20.9989 5.80469 20.9683C5.40945 20.936 5.01598 20.8651 4.6377 20.6724C4.0733 20.3847 3.61474 19.9253 3.32715 19.3608C3.13443 18.9825 3.06257 18.5891 3.03027 18.1938C2.9997 17.8194 2.99998 17.3644 3 16.8374V7.16065C2.99998 6.63354 2.99968 6.17875 3.03027 5.8042C3.06258 5.40886 3.13436 5.01559 3.32715 4.63721C3.61476 4.07278 4.07327 3.61329 4.6377 3.32569C5.01599 3.13294 5.40944 3.0621 5.80469 3.02979C6.17918 2.99919 6.63413 2.9995 7.16113 2.99951H16.8389ZM12 13.7495C11.3096 13.7495 10.75 14.3092 10.75 14.9995C10.7502 15.6897 11.3098 16.2495 12 16.2495C12.6902 16.2495 13.2498 15.6897 13.25 14.9995C13.25 14.3092 12.6903 13.7496 12 13.7495ZM12 7.99951C11.4477 7.99951 11 8.44723 11 8.99951V11.9995C11.0002 12.5516 11.4478 12.9995 12 12.9995C12.5521 12.9995 12.9998 12.5516 13 11.9995V8.99951C13 8.44726 12.5522 7.99957 12 7.99951Z" fill="black"/>
</svg>
