<svg preserveAspectRatio="none" overflow="visible" style="display: block;" width="24" height="24" viewBox="0 0 24 24" fill="none" xmlns="http://www.w3.org/2000/svg">
<g id="error">
<path id="Subtract" fill-rule="evenodd" clip-rule="evenodd" d="M12 2C6.47715 2 2 6.47715 2 12C2 17.5228 6.47715 22 12 22C17.5228 22 22 17.5228 22 12C22 6.47715 17.5228 2 12 2ZM9.63637 8.3637C9.2849 8.01223 8.71505 8.01223 8.36358 8.3637C8.01211 8.71517 8.01211 9.28502 8.36358 9.63649L10.7272 12.0001L8.36358 14.3637C8.01211 14.7152 8.01211 15.285 8.36358 15.6365C8.71505 15.988 9.2849 15.988 9.63637 15.6365L12 13.2729L14.3636 15.6365C14.7151 15.988 15.2849 15.988 15.6364 15.6365C15.9878 15.285 15.9878 14.7152 15.6364 14.3637L13.2728 12.0001L15.6364 9.63649C15.9878 9.28502 15.9878 8.71517 15.6364 8.3637C15.2849 8.01223 14.7151 8.01223 14.3636 8.3637L12 10.7273L9.63637 8.3637Z" fill="#F55451"/>
</g>
</svg>
